<mxfile host="app.diagrams.net" modified="2024-05-13T14:06:52.725Z" agent="Mozilla/5.0 (X11; Linux x86_64; rv:125.0) Gecko/20100101 Firefox/125.0" version="24.4.0" etag="0hWPSLIsqfRtG9iI1tMZ" type="github">
  <diagram name="Page-1" id="dgVdVfGn1FhE8dY17eGb">
    <mxGraphModel>
      <root>
        <mxCell id="0" />
        <mxCell id="1" parent="0" />
      </root>
    </mxGraphModel>
  </diagram>
</mxfile>
